<?xml version="1.0" encoding="UTF-8" standalone="no"?>
<!DOCTYPE svg PUBLIC "-//W3C//DTD SVG 1.1//EN" "http://www.w3.org/Graphics/SVG/1.1/DTD/svg11.dtd">
<svg width="100%" height="100%" viewBox="0 0 994 88" version="1.1" xmlns="http://www.w3.org/2000/svg" xmlns:xlink="http://www.w3.org/1999/xlink" xml:space="preserve" xmlns:serif="http://www.serif.com/" style="fill-rule:evenodd;clip-rule:evenodd;stroke-linejoin:round;stroke-miterlimit:2;">
    <g id="Fondo" transform="matrix(1,0,0,1,17,14)">
        <path d="M112.81,3.959C118.307,1.719 118.498,2.034 162.5,2.034C189.009,2.034 197.8,-0.579 194.807,15.561C189.877,42.14 188.945,50.386 176.497,50.033C149.843,49.276 108.775,51.647 104.678,48.266C100.178,44.552 102.318,38.019 102.812,35.563C107.854,10.472 106.547,9.4 112.81,3.959L113.969,38.182C116.193,39.669 116.412,39.503 171.5,39.497C181.279,39.496 180.069,35.879 183.197,20.438C185.468,9.222 178.938,12.503 167.5,12.503C120.239,12.503 119.385,12.113 117.898,14.74C117.684,15.117 112.388,33.385 113.969,38.182L112.81,3.959Z" style="fill-opacity:1;"/>
        <path d="M676.458,50.017C631.988,49.689 591.402,50.515 590.503,49.497C588.841,47.614 590.483,47.27 595.986,18.584C598.747,4.195 598.279,2.08 602.498,2.035C609.225,1.963 685.282,1.148 686.579,2.411C687.438,3.247 686.446,12.389 683.498,12.478C670.742,12.862 609.596,11.711 608.169,13.175C607.699,13.657 604.949,20.71 608.469,20.795C624.017,21.168 682.241,19.898 683.299,21.593C683.502,21.92 682.796,30.626 680.432,31.135C678.527,31.545 605.967,30.604 604.628,31.659C604.15,32.035 601.406,39.36 604.502,39.482C609.489,39.679 678.337,39.123 679.274,39.799C679.521,39.977 680.463,47.899 676.458,50.017Z" style="fill-opacity:1;"/>
        <path d="M285.472,1.996C286.097,2.154 298.057,1.424 291.226,22.407C288.377,31.157 282.093,28.572 282.876,33.434C284.256,42.003 287.134,49.751 284.631,49.932C283.864,49.987 275.814,50.568 275.107,48.674C272.086,40.57 273.252,31.214 267.501,31.203C217.714,31.111 217.654,30.27 213.451,31.285C209.811,32.165 211.237,49.801 206.538,49.953C205.894,49.974 199.118,50.194 198.503,49.497C196.841,47.614 198.473,47.269 203.987,18.584C206.634,4.812 206.63,2.076 209.479,2.04C214.026,1.984 255.558,2.11 285.472,1.996L281.002,19.105C282.517,15.816 282.926,12.986 278.496,12.558C277.474,12.459 217.846,12.489 217.505,12.539C214.641,12.953 214.533,19.643 214.908,20.183C215.334,20.796 221.891,20.797 222.5,20.798C277.956,20.811 278.223,20.989 281.002,19.105L285.472,1.996Z" style="fill-opacity:1;"/>
        <path d="M375.004,38.009C375.258,37.584 377.803,33.321 375.294,31.834C373.966,31.046 372.256,31.202 346.5,31.202C308.158,31.202 300.493,32.874 301.54,22.503C303.37,4.385 308.983,1.989 318.5,2.034C321.269,2.047 391.314,2.006 391.597,2.058C394.108,2.518 392.156,10.887 390.864,11.983C389.527,13.117 328.633,12.221 318.501,12.523C312.155,12.712 309.516,20.738 318.499,20.797C371.543,21.145 382.197,19.155 386.244,23.725C388.518,26.291 389.998,46.341 375.545,49.692C372.258,50.454 304.638,50.011 298.473,49.971C295.289,49.95 296.415,47.262 297.222,43.442C298.231,38.662 299.63,39.518 304.5,39.497C370.934,39.215 371.334,40.359 375.004,38.009Z" style="fill-opacity:1;"/>
        <path d="M938.004,38.009C938.258,37.584 940.803,33.321 938.294,31.834C936.966,31.046 935.256,31.202 909.5,31.202C871.158,31.202 863.493,32.874 864.54,22.503C866.37,4.385 871.983,1.989 881.5,2.034C884.269,2.047 954.314,2.006 954.597,2.058C957.108,2.518 955.156,10.887 953.864,11.983C952.527,13.117 891.633,12.221 881.501,12.523C875.155,12.712 872.516,20.738 881.499,20.797C934.543,21.145 945.197,19.155 949.244,23.725C951.518,26.291 952.998,46.341 938.545,49.692C935.258,50.454 867.638,50.011 861.473,49.971C858.289,49.95 859.415,47.262 860.222,43.442C861.231,38.662 862.63,39.518 867.5,39.497C933.934,39.215 934.334,40.359 938.004,38.009Z" style="fill-opacity:1;"/>
        <path d="M94.009,25.194C88.398,32.228 86.916,31.202 45.5,31.202C17.733,31.202 16.52,30.646 15.782,33.567C13.807,41.374 14.003,49.841 10.538,49.953C9.894,49.974 3.118,50.194 2.503,49.497C1.855,48.763 10.741,3.356 11.535,2.537C12.076,1.977 89.245,1.166 93.292,2.96C99.085,5.529 98.066,16.269 94.009,25.194L84.977,18.829C86.044,16.799 87.525,13.07 82.495,12.561C81.453,12.455 21.834,12.491 21.505,12.539C18.641,12.953 18.534,19.64 18.91,20.182C19.336,20.796 25.891,20.797 26.5,20.798C81.989,20.811 82.367,21.028 84.977,18.829L94.009,25.194Z" style="fill-opacity:1;"/>
        <path d="M406.81,3.959C412.307,1.719 412.498,2.034 456.5,2.034C481.938,2.034 492.168,-0.65 488.778,15.559C487.545,21.457 485.537,19.965 479.465,19.797C476.892,19.726 477.992,16.393 477.895,15.459C477.535,11.978 475.78,12.503 430.5,12.503C415.65,12.503 412.278,10.447 410.256,20.447C406.99,36.605 406.628,38.122 409.575,39.256C411.569,40.023 462.866,39.54 467.5,39.496C474.264,39.433 473.412,36.265 474.72,33.597C475.557,31.891 482.829,32.183 483.542,32.212C487.027,32.352 484.15,46.29 476.343,49.065C471.25,50.876 402.623,49.887 401.481,49.566C393.177,47.23 396.463,37.297 396.812,35.563C401.852,10.48 400.541,9.405 406.81,3.959Z" style="fill-opacity:1;"/>
        <path d="M760.025,48.898C755.72,42.863 754.597,39.113 752.467,38.641C750.317,38.165 716.617,38.475 713.5,38.503C707.543,38.558 703.686,45.887 699.316,49.255C697.687,50.511 687.348,50.053 687.167,49.894C685.988,48.856 687.094,48.483 700.304,35.304C732.624,3.06 732.712,2.19 735.512,1.974C742.468,1.436 743.52,0.723 747.123,6.73C762.278,31.997 773.123,47.75 772.64,49.621C772.579,49.858 763.178,51.079 760.025,48.898L726.015,23.007C725.808,23.2 723.418,25.42 723.418,25.42C723.238,25.584 720.275,28.277 722.549,28.338C745.552,28.964 747.127,28.273 746.202,26.616C738.19,12.266 736.578,12.706 735.588,13.613C734.797,14.338 734.96,14.406 726.015,23.007L760.025,48.898Z" style="fill-opacity:1;"/>
        <path d="M578.457,50.017C575.599,50.024 569.275,50.993 569.922,47.57C570.837,42.727 572.085,36.422 572.276,35.453C573.399,29.778 570.276,31.199 564.5,31.202C507.418,31.235 506.787,30.876 506.152,32.307C504.378,36.307 504.479,49.833 500.538,49.953C496.184,50.085 491.981,50.379 492.214,48.514C492.454,46.592 499.7,9.832 500.363,6.471C501.52,0.603 503.466,2.007 509.483,1.961C515.199,1.918 505.048,20.668 510.469,20.795C518.282,20.978 565.698,20.814 570.5,20.798C578.344,20.771 575.851,17.15 577.323,9.464C578.337,4.17 578.437,2.159 580.434,2.06C581.125,2.025 588.722,1.646 588.968,3.44C589.046,4.006 580.503,48.407 580.023,49.183C579.949,49.303 579.907,49.244 578.457,50.017Z" style="fill-opacity:1;"/>
        <path d="M808.467,50.021C802.619,50.031 799.12,52.148 800.322,46.463C800.613,45.083 806.786,14.122 806.62,13.459C805.954,10.815 769.289,14.251 768.696,11.447C768.566,10.836 769.422,2.457 771.391,2.122C772.784,1.884 849.225,2.178 855.496,1.964C860.093,1.807 857.337,12.172 854.498,12.478C849.669,12.998 819.25,11.372 817.538,13.523C817.146,14.016 817.285,14.022 812.71,37.544C810.474,49.036 810.171,49.224 808.467,50.021Z" style="fill-opacity:1;"/>
    </g>
</svg>
