<?xml version="1.0" standalone="no"?>
<!DOCTYPE svg PUBLIC "-//W3C//DTD SVG 20010904//EN"
 "http://www.w3.org/TR/2001/REC-SVG-20010904/DTD/svg10.dtd">
<svg version="1.0" xmlns="http://www.w3.org/2000/svg"
 width="994.000000pt" height="88.000000pt" viewBox="0 0 994.000000 88.000000"
 preserveAspectRatio="xMidYMid meet">

<g transform="translate(0.000000,88.000000) scale(0.100000,-0.100000)"
fill="#000000" stroke="none">
<path d="M241 503 c-23 -120 -45 -228 -48 -240 -5 -22 -2 -23 49 -23 l54 0 18
95 18 95 358 0 c347 0 358 1 384 21 33 26 52 62 61 119 13 75 8 103 -20 128
l-26 22 -403 0 -404 0 -41 -217z m789 83 c0 -55 -4 -56 -351 -56 l-319 0 0 33
c0 19 3 37 7 40 3 4 154 7 335 7 l328 0 0 -24z"/>
<path d="M1303 700 c-44 -27 -51 -43 -84 -208 -37 -184 -37 -204 -2 -232 26
-20 33 -21 406 -18 l379 3 32 35 c29 32 35 50 60 185 35 182 35 203 1 233 -26
22 -27 22 -393 22 -346 0 -369 -1 -399 -20z m703 -104 c7 -19 -33 -215 -47
-233 -9 -10 -75 -13 -329 -13 -274 0 -319 2 -324 15 -7 18 32 215 46 233 8 9
86 12 330 12 267 0 320 -2 324 -14z"/>
<path d="M2201 503 c-23 -120 -45 -228 -48 -240 -5 -22 -2 -23 49 -23 l54 0
18 95 18 95 292 0 292 0 23 -95 23 -95 54 0 c30 0 54 3 54 8 -1 4 -9 46 -19
95 -10 48 -15 87 -10 87 5 0 24 14 43 31 27 23 37 43 46 86 19 90 16 124 -15
150 l-26 23 -403 0 -404 0 -41 -217z m789 83 c0 -55 -4 -56 -351 -56 l-319 0
0 33 c0 19 3 37 7 40 3 4 154 7 335 7 l328 0 0 -24z"/>
<path d="M3273 705 c-17 -7 -38 -24 -47 -37 -20 -30 -45 -149 -39 -182 10 -50
13 -51 387 -56 l351 -5 3 -29 c2 -16 -2 -32 -10 -37 -7 -5 -183 -9 -390 -9
l-376 0 -11 -50 c-6 -28 -11 -53 -11 -55 0 -3 178 -5 395 -5 416 0 438 2 476
46 20 24 36 74 45 141 6 47 4 54 -19 77 l-26 26 -335 0 c-184 0 -341 3 -350 6
-16 6 -21 30 -10 58 5 14 49 16 389 16 211 0 386 3 388 8 3 4 8 28 12 55 l7
47 -398 0 c-317 -1 -406 -4 -431 -15z"/>
<path d="M4243 700 c-44 -27 -51 -43 -84 -208 -37 -184 -37 -204 -2 -232 26
-20 33 -21 404 -18 l378 3 30 29 c31 29 51 79 51 124 0 20 -5 22 -48 22 -45 0
-49 -2 -63 -32 l-14 -33 -321 -3 c-280 -2 -323 0 -328 13 -7 19 32 215 46 233
8 9 83 12 332 10 l321 -3 3 -32 c3 -32 4 -33 52 -33 46 0 49 2 55 31 14 64 8
102 -20 126 l-26 23 -367 0 c-346 0 -369 -1 -399 -20z"/>
<path d="M5141 503 c-23 -120 -45 -228 -48 -240 -5 -22 -2 -23 49 -23 l54 0
18 95 18 95 334 0 c184 0 334 -2 334 -4 0 -2 -7 -40 -15 -83 -21 -108 -22
-103 35 -103 43 0 50 3 55 23 11 46 85 438 85 448 0 6 -21 9 -52 7 l-52 -3
-13 -70 c-7 -38 -15 -80 -18 -92 l-5 -23 -330 0 -330 0 0 28 c0 24 6 54 25
140 5 21 2 22 -49 22 l-54 0 -41 -217z"/>
<path d="M6121 503 c-23 -120 -45 -228 -48 -240 l-5 -23 440 0 c492 0 443 -8
458 73 l6 37 -387 0 -387 0 6 31 c3 17 6 35 6 40 0 5 173 9 389 9 l388 0 10
50 10 50 -384 0 -384 0 3 38 3 37 390 5 390 5 6 30 c4 17 7 40 8 53 l1 22
-439 0 -439 0 -41 -217z"/>
<path d="M7265 480 l-240 -240 65 0 66 0 54 55 54 55 223 0 222 0 33 -55 33
-55 62 0 c35 0 63 3 63 8 -1 4 -65 111 -143 237 l-143 230 -54 3 -55 3 -240
-241z m327 55 l47 -75 -132 0 -132 0 80 75 c44 41 82 74 85 74 3 1 26 -33 52
-74z"/>
<path d="M7863 670 c-6 -27 -8 -52 -5 -55 3 -3 90 -5 194 -5 176 0 189 -1 184
-17 -6 -22 -66 -333 -66 -345 0 -5 23 -8 52 -6 l52 3 35 183 35 182 192 0
c106 0 195 3 197 8 3 4 8 28 12 55 l7 47 -440 0 -439 0 -10 -50z"/>
<path d="M8903 705 c-17 -7 -38 -24 -47 -37 -20 -30 -45 -149 -39 -182 10 -50
13 -51 387 -56 l351 -5 3 -29 c2 -16 -2 -32 -10 -37 -7 -5 -183 -9 -390 -9
l-376 0 -11 -50 c-6 -28 -11 -53 -11 -55 0 -3 178 -5 395 -5 416 0 438 2 476
46 20 24 36 74 45 141 6 47 4 54 -19 77 l-26 26 -335 0 c-184 0 -341 3 -350 6
-16 6 -21 30 -10 58 5 14 49 16 389 16 211 0 386 3 388 8 3 4 8 28 12 55 l7
47 -398 0 c-317 -1 -406 -4 -431 -15z"/>
</g>
</svg>
