<?xml version="1.0" encoding="UTF-8"?>
<svg version="1.1" xmlns="http://www.w3.org/2000/svg" width="973" height="96">
<path d="M0 0 C0.82862045 0.00359528 1.65724091 0.00719055 2.51097107 0.01089478 C3.81329178 0.01067574 3.81329178 0.01067574 5.141922 0.01045227 C8.02594967 0.01115171 10.9099136 0.01894554 13.79393005 0.02676392 C15.78790247 0.02862799 17.78187535 0.03005194 19.77584839 0.03105164 C25.03498082 0.03487769 30.29408583 0.04470871 35.5532074 0.05575562 C40.91534555 0.06596786 46.27748811 0.07054885 51.63963318 0.07559204 C62.16894213 0.0863309 72.69823069 0.10340837 83.2275238 0.12442017 C82.5675238 3.75442017 81.9075238 7.38442017 81.2275238 11.12442017 C55.4875238 11.12442017 29.7475238 11.12442017 3.2275238 11.12442017 C2.8975238 13.43442017 2.5675238 15.74442017 2.2275238 18.12442017 C27.6375238 18.12442017 53.0475238 18.12442017 79.2275238 18.12442017 C78.2275238 28.12442017 78.2275238 28.12442017 77.2275238 30.12442017 C51.4875238 30.12442017 25.7475238 30.12442017 -0.7724762 30.12442017 C-0.7724762 32.10442017 -0.7724762 34.08442017 -0.7724762 36.12442017 C37.3425238 36.61942017 37.3425238 36.61942017 76.2275238 37.12442017 C75.5675238 40.75442017 74.9075238 44.38442017 74.2275238 48.12442017 C44.8575238 48.12442017 15.4875238 48.12442017 -14.7724762 48.12442017 C-14.15232748 41.30278425 -13.50403006 34.86848891 -12.1787262 28.21035767 C-12.0271405 27.42923615 -11.87555481 26.64811462 -11.71937561 25.84332275 C-11.4026467 24.21791647 -11.08325977 22.59302593 -10.76124573 20.96865845 C-10.2668812 18.47115454 -9.78280481 15.97180335 -9.29981995 13.47207642 C-8.98922017 11.88471968 -8.67804402 10.29747558 -8.3662262 8.71035767 C-8.22140808 7.9625705 -8.07658997 7.21478333 -7.92738342 6.44433594 C-6.678297 0.19017088 -6.40093475 0.01172852 0 0 Z " fill="#FEFEFE" transform="translate(607.7724761962891,7.875579833984375)"/>
<path d="M0 0 C0.80983841 -0.00014603 1.61967682 -0.00029205 2.45405579 -0.0004425 C5.13785456 0.00025562 7.82158441 0.00804335 10.50537109 0.01586914 C12.36339276 0.01773368 14.22141492 0.01915741 16.07943726 0.02015686 C20.97523348 0.02397924 25.87100014 0.03380716 30.76678467 0.04486084 C35.76037191 0.05508095 40.75396391 0.05965577 45.74755859 0.06469727 C55.54965493 0.07542966 65.35172931 0.09250275 75.15380859 0.11352539 C74.49380859 3.74352539 73.83380859 7.37352539 73.15380859 11.11352539 C35.03880859 11.60852539 35.03880859 11.60852539 -3.84619141 12.11352539 C-4.17619141 13.76352539 -4.50619141 15.41352539 -4.84619141 17.11352539 C-4.02013397 17.11939163 -3.19407654 17.12525787 -2.34298706 17.13130188 C5.45488956 17.189288 13.25248155 17.26139854 21.05008125 17.3492403 C25.05859478 17.39390254 29.06700765 17.43316757 33.07568359 17.45996094 C36.94678233 17.48603564 40.81749286 17.5264669 44.68835068 17.57671165 C46.16261834 17.59335233 47.63695311 17.60488403 49.11130142 17.6111393 C51.18203344 17.62081139 53.2517786 17.64890479 55.32226562 17.68115234 C56.49918976 17.6922554 57.67611389 17.70335846 58.88870239 17.71479797 C62.7299932 18.18388776 66.34313338 19.30285018 69.15380859 22.11352539 C69.81709845 29.14184673 69.58129199 36.79747109 66.15380859 43.11352539 C62.25197976 47.08964575 59.93012519 48.67930565 54.13999939 48.73562622 C53.00818993 48.70866165 53.00818993 48.70866165 51.85351562 48.68115234 C51.04309311 48.68188248 50.23267059 48.68261261 49.39768982 48.68336487 C46.73497171 48.67989805 44.07403128 48.64108204 41.41162109 48.60180664 C39.55932572 48.59247524 37.70701796 48.58536067 35.85470581 48.58036804 C30.99151229 48.56132394 26.12907148 48.51224559 21.26617432 48.45684814 C16.29913514 48.40559971 11.33197374 48.38284207 6.36474609 48.35766602 C-3.37256286 48.30412423 -13.10931441 48.21884288 -22.84619141 48.11352539 C-22.70576263 46.46722211 -22.55869812 44.8214836 -22.40869141 43.17602539 C-22.286875 41.80124023 -22.286875 41.80124023 -22.16259766 40.39868164 C-21.84619141 38.11352539 -21.84619141 38.11352539 -20.84619141 37.11352539 C-18.47417594 36.98865585 -16.12978798 36.92752487 -13.75610352 36.90820312 C-13.01468613 36.89830353 -12.27326874 36.88840393 -11.50938416 36.87820435 C-9.04746748 36.84650073 -6.58553148 36.82179713 -4.12353516 36.79711914 C-2.42102036 36.77655725 -0.71851075 36.75556099 0.98399353 36.73414612 C5.47368169 36.6788464 9.96341651 36.62947211 14.45318604 36.58129883 C19.03117038 36.53114133 23.60908662 36.47542531 28.18701172 36.42016602 C37.17588589 36.31248788 46.16481909 36.21106451 55.15380859 36.11352539 C56.14380859 33.14352539 56.14380859 33.14352539 57.15380859 30.11352539 C56.31522308 30.12018723 55.47663757 30.12684906 54.61264038 30.13371277 C46.69725486 30.19390467 38.78194657 30.23954081 30.86638451 30.26896191 C26.79721665 30.28459626 22.72823842 30.30579348 18.65917969 30.33984375 C14.72991708 30.37251722 10.80083652 30.39039518 6.87144852 30.39815712 C5.37477377 30.40368634 3.87810862 30.41448363 2.38151169 30.43071556 C0.27984082 30.45259682 -1.82108453 30.45548797 -3.92285156 30.45410156 C-5.11754059 30.4607634 -6.31222961 30.46742523 -7.54312134 30.47428894 C-11.25728277 30.06862571 -13.66913283 29.05097699 -16.84619141 27.11352539 C-19.65569091 21.49452638 -17.49916816 14.31166224 -15.83837891 8.60961914 C-12.80402292 0.97594405 -7.55743498 -0.03533662 0 0 Z " fill="#FEFEFE" transform="translate(884.84619140625,7.886474609375)"/>
<path d="M0 0 C0.80983841 -0.00014603 1.61967682 -0.00029205 2.45405579 -0.0004425 C5.13785456 0.00025562 7.82158441 0.00804335 10.50537109 0.01586914 C12.36339276 0.01773368 14.22141492 0.01915741 16.07943726 0.02015686 C20.97523348 0.02397924 25.87100014 0.03380716 30.76678467 0.04486084 C35.76037191 0.05508095 40.75396391 0.05965577 45.74755859 0.06469727 C55.54965493 0.07542966 65.35172931 0.09250275 75.15380859 0.11352539 C74.49380859 3.74352539 73.83380859 7.37352539 73.15380859 11.11352539 C35.03880859 11.60852539 35.03880859 11.60852539 -3.84619141 12.11352539 C-4.17619141 13.76352539 -4.50619141 15.41352539 -4.84619141 17.11352539 C-4.02013397 17.11939163 -3.19407654 17.12525787 -2.34298706 17.13130188 C5.45488956 17.189288 13.25248155 17.26139854 21.05008125 17.3492403 C25.05859478 17.39390254 29.06700765 17.43316757 33.07568359 17.45996094 C36.94678233 17.48603564 40.81749286 17.5264669 44.68835068 17.57671165 C46.16261834 17.59335233 47.63695311 17.60488403 49.11130142 17.6111393 C51.18203344 17.62081139 53.2517786 17.64890479 55.32226562 17.68115234 C56.49918976 17.6922554 57.67611389 17.70335846 58.88870239 17.71479797 C62.7299932 18.18388776 66.34313338 19.30285018 69.15380859 22.11352539 C69.81709845 29.14184673 69.58129199 36.79747109 66.15380859 43.11352539 C62.25197976 47.08964575 59.93012519 48.67930565 54.13999939 48.73562622 C53.00818993 48.70866165 53.00818993 48.70866165 51.85351562 48.68115234 C51.04309311 48.68188248 50.23267059 48.68261261 49.39768982 48.68336487 C46.73497171 48.67989805 44.07403128 48.64108204 41.41162109 48.60180664 C39.55932572 48.59247524 37.70701796 48.58536067 35.85470581 48.58036804 C30.99151229 48.56132394 26.12907148 48.51224559 21.26617432 48.45684814 C16.29913514 48.40559971 11.33197374 48.38284207 6.36474609 48.35766602 C-3.37256286 48.30412423 -13.10931441 48.21884288 -22.84619141 48.11352539 C-22.70576263 46.46722211 -22.55869812 44.8214836 -22.40869141 43.17602539 C-22.286875 41.80124023 -22.286875 41.80124023 -22.16259766 40.39868164 C-21.84619141 38.11352539 -21.84619141 38.11352539 -20.84619141 37.11352539 C-18.47417594 36.98865585 -16.12978798 36.92752487 -13.75610352 36.90820312 C-13.01468613 36.89830353 -12.27326874 36.88840393 -11.50938416 36.87820435 C-9.04746748 36.84650073 -6.58553148 36.82179713 -4.12353516 36.79711914 C-2.42102036 36.77655725 -0.71851075 36.75556099 0.98399353 36.73414612 C5.47368169 36.6788464 9.96341651 36.62947211 14.45318604 36.58129883 C19.03117038 36.53114133 23.60908662 36.47542531 28.18701172 36.42016602 C37.17588589 36.31248788 46.16481909 36.21106451 55.15380859 36.11352539 C56.14380859 33.14352539 56.14380859 33.14352539 57.15380859 30.11352539 C56.31522308 30.12018723 55.47663757 30.12684906 54.61264038 30.13371277 C46.69725486 30.19390467 38.78194657 30.23954081 30.86638451 30.26896191 C26.79721665 30.28459626 22.72823842 30.30579348 18.65917969 30.33984375 C14.72991708 30.37251722 10.80083652 30.39039518 6.87144852 30.39815712 C5.37477377 30.40368634 3.87810862 30.41448363 2.38151169 30.43071556 C0.27984082 30.45259682 -1.82108453 30.45548797 -3.92285156 30.45410156 C-5.11754059 30.4607634 -6.31222961 30.46742523 -7.54312134 30.47428894 C-11.25728277 30.06862571 -13.66913283 29.05097699 -16.84619141 27.11352539 C-19.65569091 21.49452638 -17.49916816 14.31166224 -15.83837891 8.60961914 C-12.80402292 0.97594405 -7.55743498 -0.03533662 0 0 Z " fill="#FEFEFE" transform="translate(321.84619140625,7.886474609375)"/>
<path d="M0 0 C1.20490082 -0.01226624 1.20490082 -0.01226624 2.43414307 -0.02478027 C5.10411827 -0.04968234 7.77404015 -0.06616268 10.4440918 -0.08056641 C11.80878129 -0.08855192 11.80878129 -0.08855192 13.20104027 -0.09669876 C18.01666803 -0.12345157 22.83226967 -0.14281941 27.64794922 -0.15722656 C32.62844619 -0.17387763 37.60828183 -0.2186529 42.58852863 -0.26959801 C46.41207154 -0.30321719 50.23545652 -0.31479816 54.05913353 -0.32045364 C55.89520508 -0.32718119 57.7312657 -0.34244217 59.56719398 -0.36634445 C62.13649309 -0.39788511 64.70399647 -0.39805002 67.2734375 -0.390625 C68.41367622 -0.415233 68.41367622 -0.415233 69.57695007 -0.44033813 C73.38762688 -0.39521033 75.00023072 -0.11874096 77.81706238 2.53646851 C80.88913854 7.92750463 79.22988773 14.65160792 77.7565918 20.45458984 C76.22744613 24.52936529 73.95337706 26.87071307 70.33081055 29.19287109 C69.67081055 29.19287109 69.01081055 29.19287109 68.33081055 29.19287109 C69.65081055 35.46287109 70.97081055 41.73287109 72.33081055 48.19287109 C68.37081055 48.19287109 64.41081055 48.19287109 60.33081055 48.19287109 C58.37690835 42.50879197 56.79857641 37.06393454 55.33081055 31.19287109 C36.19081055 30.86287109 17.05081055 30.53287109 -2.66918945 30.19287109 C-2.99918945 33.82287109 -3.32918945 37.45287109 -3.66918945 41.19287109 C-4.2660083 43.54503949 -4.90179849 45.89069821 -5.66918945 48.19287109 C-9.29918945 48.19287109 -12.92918945 48.19287109 -16.66918945 48.19287109 C-16.07109111 38.97218827 -14.45129301 30.08340281 -12.65795898 21.03710938 C-12.16359446 18.53960547 -11.67951807 16.04025428 -11.1965332 13.54052734 C-10.88593343 11.9531706 -10.57475728 10.36592651 -10.26293945 8.77880859 C-10.11812134 8.03102142 -9.97330322 7.28323425 -9.82409668 6.51278687 C-8.40057572 -0.61477045 -6.78841537 0.03774093 0 0 Z M1.33081055 11.19287109 C1.00081055 13.50287109 0.67081055 15.81287109 0.33081055 18.19287109 C21.78081055 18.19287109 43.23081055 18.19287109 65.33081055 18.19287109 C65.99081055 16.21287109 66.65081055 14.23287109 67.33081055 12.19287109 C66.26094202 10.89849514 66.26094202 10.89849514 63.74290466 11.07261658 C62.01415855 11.07594749 62.01415855 11.07594749 60.25048828 11.0793457 C58.94921494 11.07942123 57.64794159 11.07949677 56.30723572 11.07957458 C54.87629153 11.08468201 53.44534772 11.08989801 52.0144043 11.09521484 C50.55851795 11.09707906 49.10263097 11.09850295 47.64674377 11.09950256 C43.80801676 11.10332744 39.96932735 11.11315745 36.13061523 11.12420654 C32.21623239 11.13442132 28.30184349 11.13900032 24.38745117 11.14404297 C16.70188712 11.15477976 9.01635409 11.17185581 1.33081055 11.19287109 Z " fill="#FEFEFE" transform="translate(217.669189453125,7.80712890625)"/>
<path d="M0 0 C0.74518387 -0.00832352 1.49036774 -0.01664703 2.25813293 -0.02522278 C4.71706386 -0.04928422 7.17572953 -0.05808873 9.63476562 -0.06469727 C11.345826 -0.07366438 13.05688557 -0.08278624 14.76794434 -0.09205627 C18.35231431 -0.10853679 21.93659095 -0.11624505 25.52099609 -0.11914062 C30.11473151 -0.12453293 34.70759111 -0.16225118 39.3010788 -0.20788479 C42.83383396 -0.23761505 46.36637681 -0.24486324 49.89924622 -0.24586678 C51.59296188 -0.25007477 53.28667786 -0.26253234 54.98027039 -0.28338432 C57.34818237 -0.3102256 59.71404513 -0.30549761 62.08203125 -0.29296875 C62.78137283 -0.30780304 63.48071442 -0.32263733 64.20124817 -0.33792114 C67.86041775 -0.28275378 69.29195652 0.06927543 71.9810791 2.62950134 C76.18698547 9.84695548 72.47525667 19.79454255 70.85351562 27.43139648 C70.60923828 28.68049805 70.36496094 29.92959961 70.11328125 31.21655273 C68.71358012 37.85716011 67.64426587 42.67307397 62.54101562 47.30639648 C59.57719811 48.78830524 56.55927676 48.46238691 53.30908203 48.4675293 C52.56419022 48.4724942 51.8192984 48.47745911 51.05183411 48.48257446 C48.58207279 48.49720637 46.1123757 48.50399974 43.64257812 48.50952148 C41.92866005 48.51527205 40.214742 48.5210298 38.50082397 48.52679443 C34.90451762 48.53730732 31.30823363 48.54314811 27.71191406 48.54663086 C23.10267234 48.55211648 18.49372589 48.57614462 13.8845768 48.60460281 C10.34326309 48.62322236 6.80202061 48.62843442 3.26066208 48.62996674 C1.56138876 48.6329953 -0.13788325 48.64103072 -1.83710861 48.65415192 C-4.21438845 48.67119859 -6.59094563 48.66933584 -8.96826172 48.6628418 C-10.02198723 48.67666397 -10.02198723 48.67666397 -11.09700012 48.69076538 C-14.12190133 48.6648681 -16.19987061 48.4478248 -18.87608337 46.98710632 C-21.3839318 44.32429575 -21.28449601 41.886786 -21.45898438 38.30639648 C-21.08520508 34.85302734 -21.08520508 34.85302734 -20.38476562 31.27124023 C-20.2596611 30.62949356 -20.13455658 29.98774689 -20.00566101 29.32655334 C-19.73972653 27.9800674 -19.46798458 26.63471643 -19.19067383 25.29052734 C-18.77250969 23.24890245 -18.38132527 21.203337 -17.9921875 19.15600586 C-17.72882362 17.83992743 -17.46390122 16.52415972 -17.19726562 15.20874023 C-16.96048096 14.02787842 -16.72369629 12.8470166 -16.47973633 11.63037109 C-15.18833083 7.42504083 -13.50833914 3.71863632 -9.79133606 1.15719604 C-6.54368045 -0.02748977 -3.41284219 0.00324366 0 0 Z M-4.28239441 13.11846924 C-5.94747121 16.21476193 -6.49614964 19.23359012 -7.14648438 22.68139648 C-7.39785156 23.96788086 -7.64921875 25.25436523 -7.90820312 26.57983398 C-8.40022284 29.90881843 -8.64654126 32.95064891 -8.45898438 36.30639648 C-6.68440512 38.08097574 -4.1044902 37.45247956 -1.70166016 37.4675293 C-0.47013214 37.47713684 0.76139587 37.48674438 2.03024292 37.49664307 C3.38539445 37.5014907 4.74054812 37.50576962 6.09570312 37.50952148 C7.47714237 37.51527082 8.85858158 37.52102857 10.24002075 37.52679443 C13.14032362 37.53731357 16.0405987 37.5431501 18.94091797 37.54663086 C22.65912078 37.55211463 26.37695719 37.57613581 30.09504509 37.60460281 C32.95005366 37.62321931 35.80497385 37.62843427 38.66003799 37.62996674 C40.03079352 37.63299656 41.40154737 37.64103623 42.7722435 37.65415192 C44.68972296 37.67118819 46.60735284 37.66749086 48.52490234 37.6628418 C49.61664764 37.66648743 50.70839294 37.67013306 51.83322144 37.67388916 C54.55644682 37.52943144 54.55644682 37.52943144 56.37179565 35.92390442 C57.89478162 33.81699388 58.26976482 32.04229628 58.74414062 29.48999023 C58.91945313 28.5612207 59.09476562 27.63245117 59.27539062 26.67553711 C59.44554687 25.7080957 59.61570312 24.7406543 59.79101562 23.74389648 C60.06945312 22.28693359 60.06945312 22.28693359 60.35351562 20.80053711 C61.55675034 15.93768483 61.55675034 15.93768483 60.54101562 11.30639648 C52.37870658 11.21375577 44.21661681 11.14266236 36.05391216 11.0991478 C32.26369865 11.07826389 28.47384454 11.04993268 24.68383789 11.00463867 C21.02689389 10.9612079 17.37029576 10.93726543 13.71311378 10.92688751 C12.31720343 10.91949101 10.92131221 10.9050472 9.52554893 10.88347626 C7.57215173 10.85448531 5.61840719 10.85276296 3.66479492 10.85229492 C2.55226852 10.84341248 1.43974213 10.83453003 0.29350281 10.82537842 C-2.55071074 11.05188187 -2.55071074 11.05188187 -4.28239441 13.11846924 Z " fill="#FEFEFE" transform="translate(125.458984375,7.693603515625)"/>
<path d="M0 0 C1.20490082 -0.01226624 1.20490082 -0.01226624 2.43414307 -0.02478027 C5.10411827 -0.04968234 7.77404015 -0.06616268 10.4440918 -0.08056641 C11.80878129 -0.08855192 11.80878129 -0.08855192 13.20104027 -0.09669876 C18.01666803 -0.12345157 22.83226967 -0.14281941 27.64794922 -0.15722656 C32.62844619 -0.17387763 37.60828183 -0.2186529 42.58852863 -0.26959801 C46.41207154 -0.30321719 50.23545652 -0.31479816 54.05913353 -0.32045364 C55.89520508 -0.32718119 57.7312657 -0.34244217 59.56719398 -0.36634445 C62.13649309 -0.39788511 64.70399647 -0.39805002 67.2734375 -0.390625 C68.41367622 -0.415233 68.41367622 -0.415233 69.57695007 -0.44033813 C73.38762688 -0.39521033 75.00023072 -0.11874096 77.81706238 2.53646851 C80.88913854 7.92750463 79.22988773 14.65160792 77.7565918 20.45458984 C76.2218912 24.54416774 73.97616972 26.88117991 70.33081055 29.19287109 C66.75794598 30.41641484 63.29428205 30.31324239 59.54272461 30.30639648 C58.5323539 30.30661552 58.5323539 30.30661552 57.50157166 30.30683899 C55.28315978 30.30614433 53.06483269 30.2983729 50.84643555 30.29052734 C49.3051559 30.28866158 47.76387566 30.28723842 46.22259521 30.28623962 C42.17183791 30.28242695 38.12111663 30.27260734 34.07037354 30.26153564 C29.93453458 30.25129465 25.79868979 30.24673625 21.6628418 30.24169922 C13.55214821 30.23098394 5.44148386 30.21392253 -2.66918945 30.19287109 C-2.72905029 30.93835205 -2.78891113 31.68383301 -2.85058594 32.4519043 C-2.93381104 33.43505615 -3.01703613 34.41820801 -3.1027832 35.43115234 C-3.18326904 36.4035083 -3.26375488 37.37586426 -3.34667969 38.37768555 C-3.74380217 41.84416499 -4.56813312 44.88970211 -5.66918945 48.19287109 C-9.29918945 48.19287109 -12.92918945 48.19287109 -16.66918945 48.19287109 C-16.07109111 38.97218827 -14.45129301 30.08340281 -12.65795898 21.03710938 C-12.16359446 18.53960547 -11.67951807 16.04025428 -11.1965332 13.54052734 C-10.88593343 11.9531706 -10.57475728 10.36592651 -10.26293945 8.77880859 C-10.11812134 8.03102142 -9.97330322 7.28323425 -9.82409668 6.51278687 C-8.40057572 -0.61477045 -6.78841537 0.03774093 0 0 Z M1.33081055 11.19287109 C1.00081055 13.50287109 0.67081055 15.81287109 0.33081055 18.19287109 C21.78081055 18.19287109 43.23081055 18.19287109 65.33081055 18.19287109 C65.99081055 16.21287109 66.65081055 14.23287109 67.33081055 12.19287109 C66.26094202 10.89849514 66.26094202 10.89849514 63.74290466 11.07261658 C62.01415855 11.07594749 62.01415855 11.07594749 60.25048828 11.0793457 C58.94921494 11.07942123 57.64794159 11.07949677 56.30723572 11.07957458 C54.87629153 11.08468201 53.44534772 11.08989801 52.0144043 11.09521484 C50.55851795 11.09707906 49.10263097 11.09850295 47.64674377 11.09950256 C43.80801676 11.10332744 39.96932735 11.11315745 36.13061523 11.12420654 C32.21623239 11.13442132 28.30184349 11.13900032 24.38745117 11.14404297 C16.70188712 11.15477976 9.01635409 11.17185581 1.33081055 11.19287109 Z " fill="#FEFEFE" transform="translate(21.669189453125,7.80712890625)"/>
<path d="M0 0 C0.74518387 -0.00832352 1.49036774 -0.01664703 2.25813293 -0.02522278 C4.71706386 -0.04928422 7.17572953 -0.05808873 9.63476562 -0.06469727 C11.345826 -0.07366438 13.05688557 -0.08278624 14.76794434 -0.09205627 C18.35231431 -0.10853679 21.93659095 -0.11624505 25.52099609 -0.11914062 C30.11473151 -0.12453293 34.70759111 -0.16225118 39.3010788 -0.20788479 C42.83383396 -0.23761505 46.36637681 -0.24486324 49.89924622 -0.24586678 C51.59296188 -0.25007477 53.28667786 -0.26253234 54.98027039 -0.28338432 C57.34818237 -0.3102256 59.71404513 -0.30549761 62.08203125 -0.29296875 C62.78137283 -0.30780304 63.48071442 -0.32263733 64.20124817 -0.33792114 C67.92164701 -0.28183066 69.28839967 0.05676791 71.97839355 2.71495056 C73.51079544 5.25627946 74.04479175 6.40308027 73.91601562 9.30639648 C73.903125 9.94577148 73.89023437 10.58514648 73.87695312 11.24389648 C73.54101562 13.30639648 73.54101562 13.30639648 71.54101562 18.30639648 C67.91101563 18.30639648 64.28101563 18.30639648 60.54101562 18.30639648 C60.54101562 15.99639648 60.54101562 13.68639648 60.54101562 11.30639648 C52.36113271 11.36753752 44.18162238 11.44459174 36.00209999 11.5421114 C32.20422094 11.58688803 28.40645097 11.62612753 24.60839844 11.65283203 C20.94478573 11.67879303 17.28159117 11.71914286 13.61823654 11.76958275 C12.21881679 11.78630056 10.81932463 11.79778417 9.41981888 11.80401039 C7.46352005 11.81359732 5.50735094 11.84332226 3.55126953 11.87402344 C1.87914902 11.89067802 1.87914902 11.89067802 0.17324829 11.90766907 C-1.12970688 12.10503914 -1.12970688 12.10503914 -2.45898438 12.30639648 C-4.70837146 15.68047711 -5.3411488 18.71900973 -6.08398438 22.61889648 C-6.21804688 23.27051758 -6.35210937 23.92213867 -6.49023438 24.59350586 C-7.26942998 28.56501818 -7.51243446 32.2709149 -7.45898438 36.30639648 C0.59025546 36.35268484 8.63943991 36.38824774 16.68877983 36.41002083 C20.42619392 36.42046946 24.16351713 36.43464819 27.90087891 36.45727539 C31.50592063 36.47896553 35.11087479 36.49095697 38.71597672 36.49615097 C40.0931346 36.49985364 41.47028756 36.50708383 42.84740829 36.5178566 C44.77241108 36.53231983 46.69750149 36.53321296 48.62255859 36.53344727 C50.26803177 36.5401091 50.26803177 36.5401091 51.94674683 36.54690552 C54.70335874 36.56992877 54.70335874 36.56992877 56.54101562 34.30639648 C56.87101562 32.98639648 57.20101562 31.66639648 57.54101562 30.30639648 C61.50101562 30.30639648 65.46101563 30.30639648 69.54101562 30.30639648 C67.94982066 42.1680317 67.94982066 42.1680317 62.54101562 47.30639648 C59.57719811 48.78830524 56.55927676 48.46238691 53.30908203 48.4675293 C52.56419022 48.4724942 51.8192984 48.47745911 51.05183411 48.48257446 C48.58207279 48.49720637 46.1123757 48.50399974 43.64257812 48.50952148 C41.92866005 48.51527205 40.214742 48.5210298 38.50082397 48.52679443 C34.90451762 48.53730732 31.30823363 48.54314811 27.71191406 48.54663086 C23.10267234 48.55211648 18.49372589 48.57614462 13.8845768 48.60460281 C10.34326309 48.62322236 6.80202061 48.62843442 3.26066208 48.62996674 C1.56138876 48.6329953 -0.13788325 48.64103072 -1.83710861 48.65415192 C-4.21438845 48.67119859 -6.59094563 48.66933584 -8.96826172 48.6628418 C-10.02198723 48.67666397 -10.02198723 48.67666397 -11.09700012 48.69076538 C-14.12190133 48.6648681 -16.19987061 48.4478248 -18.87608337 46.98710632 C-21.3839318 44.32429575 -21.28449601 41.886786 -21.45898438 38.30639648 C-21.08520508 34.85302734 -21.08520508 34.85302734 -20.38476562 31.27124023 C-20.2596611 30.62949356 -20.13455658 29.98774689 -20.00566101 29.32655334 C-19.73972653 27.9800674 -19.46798458 26.63471643 -19.19067383 25.29052734 C-18.77250969 23.24890245 -18.38132527 21.203337 -17.9921875 19.15600586 C-17.72882362 17.83992743 -17.46390122 16.52415972 -17.19726562 15.20874023 C-16.96048096 14.02787842 -16.72369629 12.8470166 -16.47973633 11.63037109 C-15.18833083 7.42504083 -13.50833914 3.71863632 -9.79133606 1.15719604 C-6.54368045 -0.02748977 -3.41284219 0.00324366 0 0 Z " fill="#FEFEFE" transform="translate(419.458984375,7.693603515625)"/>
<path d="M0 0 C1.51400391 0.01740234 1.51400391 0.01740234 3.05859375 0.03515625 C4.07050781 0.04417969 5.08242188 0.05320312 6.125 0.0625 C7.29869141 0.07990234 7.29869141 0.07990234 8.49609375 0.09765625 C8.37923935 1.59831279 8.25207327 3.09816655 8.12109375 4.59765625 C8.05148437 5.43296875 7.981875 6.26828125 7.91015625 7.12890625 C7.39300704 10.83676854 6.40408721 14.46568242 5.49609375 18.09765625 C27.27609375 18.09765625 49.05609375 18.09765625 71.49609375 18.09765625 C71.82609375 15.12765625 72.15609375 12.15765625 72.49609375 9.09765625 C73.06611667 6.06446859 73.78078281 3.10196219 74.49609375 0.09765625 C78.45609375 0.09765625 82.41609375 0.09765625 86.49609375 0.09765625 C83.67657929 16.13653361 80.78527596 32.14787883 77.49609375 48.09765625 C73.53609375 48.09765625 69.57609375 48.09765625 65.49609375 48.09765625 C65.80716225 46.03493986 66.12000891 43.97249159 66.43359375 41.91015625 C66.60761719 40.76160156 66.78164063 39.61304688 66.9609375 38.4296875 C67.40877449 35.6413302 67.94224378 32.86690608 68.49609375 30.09765625 C46.71609375 30.09765625 24.93609375 30.09765625 2.49609375 30.09765625 C2.16609375 33.72765625 1.83609375 37.35765625 1.49609375 41.09765625 C0.8992749 43.44982464 0.26348471 45.79548336 -0.50390625 48.09765625 C-4.13390625 48.09765625 -7.76390625 48.09765625 -11.50390625 48.09765625 C-10.9058079 38.87697343 -9.28600981 29.98818796 -7.49267578 20.94189453 C-6.99831125 18.44439062 -6.51423487 15.94503943 -6.03125 13.4453125 C-5.72065022 11.85795576 -5.40947407 10.27071167 -5.09765625 8.68359375 C-4.95283813 7.93580658 -4.80802002 7.18801941 -4.65881348 6.41757202 C-3.40360339 0.13274584 -3.40360339 0.13274584 0 0 Z " fill="#FEFEFE" transform="translate(506.50390625,7.90234375)"/>
<path d="M0 0 C2.86379803 2.22850927 4.20613097 4.64998724 5.8125 7.875 C6.78206922 9.60256549 7.75353582 11.32906701 8.7265625 13.0546875 C9.23864258 13.99924805 9.75072266 14.94380859 10.27832031 15.91699219 C12.18009596 19.32249742 14.20537318 22.63950459 16.2734375 25.9453125 C16.63920395 26.53061737 17.0049704 27.11592224 17.38182068 27.71896362 C18.11833707 28.89625707 18.85526872 30.07329084 19.59262085 31.25006104 C21.34796063 34.05561038 23.08956584 36.86908786 24.82421875 39.6875 C25.41291748 40.64011719 26.00161621 41.59273437 26.6081543 42.57421875 C28 45 28 45 29 48 C26.81952384 48.27218149 24.62906773 48.46503155 22.4375 48.625 C21.21933594 48.74101563 20.00117187 48.85703125 18.74609375 48.9765625 C17.50988281 48.65429688 16.27367187 48.33203125 15 48 C14.06828776 46.3762248 13.19853715 44.71643884 12.3671875 43.0390625 C10.57245243 40.20527029 9.24497649 38.37433245 5.95889282 37.3862915 C0.54373594 36.54318156 -4.88294357 36.57817327 -10.3503418 36.69628906 C-13.29807896 36.74973851 -16.23047877 36.69689935 -19.17773438 36.6328125 C-29.35228554 36.26239469 -29.35228554 36.26239469 -38.29785156 40.29248047 C-40.85499515 42.97708439 -40.85499515 42.97708439 -43.02319336 45.7734375 C-45.19080401 48.21491077 -46.06095966 48.73995029 -49.2578125 48.9765625 C-50.53398438 48.86054687 -51.81015625 48.74453125 -53.125 48.625 C-54.42695312 48.53476562 -55.72890625 48.44453125 -57.0703125 48.3515625 C-58.03710938 48.23554687 -59.00390625 48.11953125 -60 48 C-52.66376205 39.25971851 -44.71379483 31.11540385 -36.74438477 22.95483398 C-34.86851869 21.029736 -33.01146004 19.08891016 -31.16821289 17.13256836 C-28.48542465 14.2975144 -25.76217479 11.50742865 -23.02734375 8.72265625 C-22.21643784 7.84779068 -21.40553192 6.97292511 -20.5700531 6.07154846 C-14.36927845 -0.11183009 -8.71967828 -1.9295341 0 0 Z M-12.75 15.0625 C-13.40484375 15.63097656 -14.0596875 16.19945312 -14.734375 16.78515625 C-17.68495814 19.66960563 -20.31466815 22.86711284 -23 26 C-15.08 26 -7.16 26 1 26 C0.05125 24.246875 -0.8975 22.49375 -1.875 20.6875 C-2.67550781 19.20830078 -2.67550781 19.20830078 -3.4921875 17.69921875 C-5.00722126 14.90413542 -5.00722126 14.90413542 -7 12 C-9.81355833 12 -10.65839108 13.21815492 -12.75 15.0625 Z " fill="#FEFEFE" transform="translate(748,8)"/>
<path d="M0 0 C0.82862045 0.00359528 1.65724091 0.00719055 2.51097107 0.01089478 C3.81329178 0.01067574 3.81329178 0.01067574 5.141922 0.01045227 C8.02594967 0.01115171 10.9099136 0.01894554 13.79393005 0.02676392 C15.78790247 0.02862799 17.78187535 0.03005194 19.77584839 0.03105164 C25.03498082 0.03487769 30.29408583 0.04470871 35.5532074 0.05575562 C40.91534555 0.06596786 46.27748811 0.07054885 51.63963318 0.07559204 C62.16894213 0.0863309 72.69823069 0.10340837 83.2275238 0.12442017 C82.5675238 3.75442017 81.9075238 7.38442017 81.2275238 11.12442017 C68.3575238 11.12442017 55.4875238 11.12442017 42.2275238 11.12442017 C41.5675238 15.41442017 40.9075238 19.70442017 40.2275238 24.12442017 C39.82143413 26.30213024 39.39848592 28.47699333 38.9384613 30.64395142 C38.60975037 32.20532837 38.60975037 32.20532837 38.2743988 33.79824829 C38.05268005 34.83401001 37.8309613 35.86977173 37.6025238 36.93692017 C37.37307068 38.02295532 37.14361755 39.10899048 36.9072113 40.22793579 C36.35048861 42.86077022 35.78947299 45.49269632 35.2275238 48.12442017 C31.2675238 48.12442017 27.3075238 48.12442017 23.2275238 48.12442017 C24.01680092 43.64482064 24.8088647 39.16574359 25.6025238 34.68692017 C25.82424255 33.42686157 26.0459613 32.16680298 26.2743988 30.86856079 C26.60310974 29.01714478 26.60310974 29.01714478 26.9384613 27.12832642 C27.23695984 25.43945312 27.23695984 25.43945312 27.54148865 23.71646118 C28.34661257 19.50087817 29.29650628 15.31399902 30.2275238 11.12442017 C17.6875238 11.12442017 5.1475238 11.12442017 -7.7724762 11.12442017 C-6.66125473 0.0122055 -6.66125473 0.0122055 0 0 Z " fill="#FEFEFE" transform="translate(778.7724761962891,7.875579833984375)"/>
</svg>
