<?xml version="1.0" encoding="UTF-8" standalone="no"?>
<!DOCTYPE svg PUBLIC "-//W3C//DTD SVG 1.1//EN" "http://www.w3.org/Graphics/SVG/1.1/DTD/svg11.dtd">
<svg width="100%" height="100%" viewBox="0 0 973 96" version="1.1" xmlns="http://www.w3.org/2000/svg" xmlns:xlink="http://www.w3.org/1999/xlink" xml:space="preserve" xmlns:serif="http://www.serif.com/" style="fill-rule:evenodd;clip-rule:evenodd;stroke-linejoin:round;stroke-miterlimit:2;">
    <g id="Fondo" transform="matrix(1,0,0,1,7,21)">
        <path d="M186.497,3C187.995,3.115 194.265,0.763 196.505,10.499C196.647,11.114 194.829,22.667 194.572,23.525C193.47,27.204 191.756,51.772 180.505,51.844C119.526,52.236 111.418,51.409 105.444,50.8C100.475,50.294 100.513,40.487 102.76,32.594C108.471,12.537 102.629,3.262 123.497,3.043C128.536,2.99 131.171,2.963 186.497,3L170.501,40C171.852,39.925 173.209,40.029 174.56,39.954C178.715,39.725 179.883,35.377 183.039,18.467C183.727,14.78 177.868,13.096 173.419,14.244C167.939,15.658 125.331,14.25 121.423,15.022C116.584,15.979 113.273,38.141 115.773,39.008C119.911,40.442 120.465,40.635 170.501,40L186.497,3Z" style="fill:rgb(254,254,254);fill-opacity:0.98;"/>
        <path d="M684.001,25.488C683.881,26.076 682.652,32.107 681.544,32.58C680.005,33.239 644.971,34.858 638.579,33.244C637.204,32.898 625.478,33.067 619.5,33.033C618.618,33.028 618.73,33.68 608.506,33.84C607.987,33.848 603.511,33.918 603.979,38.481C604.161,40.258 605.22,39.978 672.5,39.981C677.926,39.981 680.153,39.11 679.91,44.514C679.888,45.01 679.66,50.088 678.536,50.563C674.674,52.195 595.442,52.543 591.63,51.01C587.531,49.362 593.405,31.463 595.208,19.456C597.576,3.677 599.092,3.41 600.44,3.172C601.546,2.976 683.885,2.992 686.592,3.174C688.827,3.324 687.882,13.841 683.519,13.922C678.922,14.007 679.03,14.197 674.528,14.762C669.505,15.393 610.122,13.68 608.916,15.756C606.282,20.29 609.201,20.417 614.446,20.954C623.668,21.899 675.215,21.135 680.498,21.057C684.335,21 683.856,22.329 684.001,25.488Z" style="fill:rgb(254,254,254);fill-opacity:0.98;"/>
        <path d="M332.5,3C342.051,3.237 390.358,2.867 392.604,3.157C395.339,3.51 393.121,11.785 391.452,13.452C387.827,17.072 343.464,12.967 338.421,14.244C334.728,15.179 334.69,14.721 318.507,14.872C318,14.876 312.463,14.928 314.29,19.608C314.853,21.052 321.832,21.069 322.5,21.071C377.128,21.207 382.662,19.891 387.413,24.573C390.102,27.224 388.197,49.636 378.552,50.794C372.829,51.481 367.206,52.156 306.5,51.823C298.155,51.777 293.902,52.381 296.421,44.471C298.313,38.535 300.417,40.076 309.5,40.078C372.148,40.09 375.293,40.642 374.987,35.389C374.818,32.492 363.392,34.336 360.483,33.555C354.222,31.873 353.039,33.761 349.504,33.802C319.397,34.148 319.465,33.066 310.49,32.904C297.151,32.663 300.018,18.099 304.773,8.642C307.981,2.261 311.609,3.239 332.5,3Z" style="fill:rgb(254,254,254);fill-opacity:0.99;"/>
        <path d="M895.5,3C905.051,3.237 953.358,2.867 955.604,3.157C958.339,3.51 956.121,11.785 954.452,13.452C950.827,17.072 906.464,12.967 901.421,14.244C897.728,15.179 897.69,14.721 881.507,14.872C881,14.876 875.463,14.928 877.29,19.608C877.853,21.052 884.832,21.069 885.5,21.071C940.128,21.207 945.662,19.891 950.413,24.573C953.102,27.224 951.197,49.636 941.552,50.794C935.829,51.481 930.206,52.156 869.5,51.823C861.155,51.777 856.902,52.381 859.421,44.471C861.313,38.535 863.417,40.076 872.5,40.078C935.148,40.09 938.293,40.642 937.987,35.389C937.818,32.492 926.392,34.336 923.483,33.555C917.222,31.873 916.039,33.761 912.504,33.802C882.397,34.148 882.465,33.066 873.49,32.904C860.151,32.663 863.018,18.099 867.773,8.642C870.981,2.261 874.609,3.239 895.5,3Z" style="fill:rgb(254,254,254);fill-opacity:0.99;"/>
        <path d="M286.491,2.993C291.345,3.686 295.236,3.649 293.788,17.538C292.74,27.592 286.864,31.22 285.742,31.912C279.617,35.694 292.022,51.29 283.535,51.779C275.981,52.214 274.533,51.939 273.082,44.559C271.212,35.048 269.473,34.529 268.613,34.273C268.255,34.166 232.402,32.406 229.421,33.245C223.358,34.951 213.547,31.757 212.246,36.406C212.022,37.209 211.945,43.335 209.54,49.522C208.916,51.128 194.66,57.126 198.761,42.593C199.315,40.631 198.412,40.476 203.766,17.596C205.298,11.049 204.638,3.647 208.431,3.16C210.442,2.901 273.254,3.194 286.491,2.993L225.5,21C276.451,21.565 277.179,22.387 280.287,19.293C280.392,19.189 282.909,15.085 278.488,14.865C275.109,14.696 275.145,13.741 227.502,13.961C227.501,13.961 217.486,14.781 216.915,15.772C213.38,21.913 218.432,20.758 225.5,21L286.491,2.993Z" style="fill:rgb(254,254,254);fill-opacity:0.98;"/>
        <path d="M14.501,2.994C29.443,3.355 90.98,2.575 93.529,3.426C101.446,6.068 97.711,21.379 94.561,27.538C88.477,39.43 19.275,30.724 16.929,34.778C13.23,41.168 19.629,53.046 4.455,51.788C3.39,51.7 -0.411,51.385 3.435,38.477C5.636,31.089 4.316,30.85 6.438,23.478C10.256,10.211 6.64,3.569 14.501,2.994L29.5,21C80.449,21.565 81.175,22.382 84.286,19.291C84.658,18.922 88.378,14.841 79.5,14.817C74.944,14.804 23.92,14.666 22.548,14.853C19.869,15.219 18.512,20.788 23.446,20.957C25.463,21.027 27.483,20.931 29.5,21L14.501,2.994Z" style="fill:rgb(254,254,254);fill-opacity:0.98;"/>
        <path d="M420.5,3C425.187,3.176 471.049,3.011 477.503,3.062C480.266,3.084 489.465,1.311 490.005,9.51C490.621,18.88 490.891,22.075 481.486,21.846C474.735,21.682 478.897,15.012 474.465,14.852C472.677,14.787 416.896,14.816 416.514,14.838C411.008,15.151 411.194,23.443 410.57,25.525C410.291,26.457 408.542,32.29 408.458,37.506C408.431,39.215 413.565,40.087 414.504,40.065C446.797,39.319 470.042,42.184 473.087,36.291C475.32,31.97 476.361,32.872 483.527,33.061C484.523,33.087 488.236,33.184 483.533,45.517C481.629,50.509 472.87,51.799 469.501,51.832C403.957,52.481 403.799,52.54 398.482,50.534C391.655,47.959 398.229,25.981 400.068,16.44C402.807,2.227 408.03,3.221 420.5,3Z" style="fill:rgb(254,254,254);fill-opacity:0.98;"/>
        <path d="M570.507,20.998C580.329,19.715 573.354,3.214 580.513,3C584.923,2.868 590.459,1.851 589.792,6.539C588.783,13.628 587.943,13.392 586.924,20.551C585.133,33.144 583.828,32.882 582.788,43.544C581.966,51.97 579.922,52.119 571.457,51.794C564.707,51.535 575.712,35.518 569.451,33.847C569.167,33.771 509.717,33.811 509.511,33.825C502.857,34.274 507.412,51.214 500.541,51.788C492.706,52.442 490.159,51.038 492.431,43.475C495.384,33.644 493.477,33.291 496.426,23.474C498.95,15.067 497.474,3.236 504.457,2.201C519.675,-0.056 506.18,18.499 511.394,20.711C513.695,21.687 565.779,21.056 570.507,20.998Z" style="fill:rgb(254,254,254);fill-opacity:0.98;"/>
        <path d="M742.428,2.973C749.442,4.598 751.951,16.254 760.16,26.772C761.35,28.298 766.4,37.346 766.921,38.279C770.863,45.342 777.022,51.318 770.536,51.777C758.843,52.604 758.793,50.492 755.045,43.741C753.428,40.829 752.683,40.329 713.505,40.829C706.215,40.922 703.669,51.78 695.509,51.84C695.227,51.842 684.638,52.93 685.432,49.476C685.543,48.996 685.658,49.046 719.351,15.351C726.78,7.922 732.245,0.108 742.428,2.973L728.5,28.994C739.856,28.991 744.864,29.614 744.423,27.512C744.218,26.537 743.979,25.398 738.097,16.78C735.965,13.655 723.303,27.248 724.346,28.642C724.601,28.983 728.166,28.993 728.5,28.994L742.428,2.973Z" style="fill:rgb(254,254,254);fill-opacity:0.96;"/>
        <path d="M852.5,2.996C856.042,3.102 860.254,1.25 858.238,8.406C857.807,9.937 858.367,13.447 855.572,13.843C834.65,16.804 819.789,12.617 818.284,16.385C815.777,22.663 813.423,48.86 809.355,51.219C808.372,51.789 798.067,53.693 799.435,48.48C799.764,47.224 799.443,47.166 802.759,32.592C806.55,15.928 804.981,15.365 803.617,15.018C799.648,14.01 769.574,16.283 768.446,13.531C768.077,12.631 766.966,3.143 772.482,3.077C778.202,3.009 847.711,3.173 852.5,2.996Z" style="fill:rgb(254,254,254);fill-opacity:0.98;"/>
    </g>
</svg>
