<?xml version="1.0" encoding="UTF-8" standalone="no"?><!DOCTYPE svg PUBLIC "-//W3C//DTD SVG 1.1//EN" "http://www.w3.org/Graphics/SVG/1.1/DTD/svg11.dtd"><svg width="100%" height="100%" viewBox="0 0 973 96" version="1.1" xmlns="http://www.w3.org/2000/svg" xmlns:xlink="http://www.w3.org/1999/xlink" xml:space="preserve" xmlns:serif="http://www.serif.com/" style="fill-rule:evenodd;clip-rule:evenodd;stroke-linejoin:round;stroke-miterlimit:2;"><g id="Fondo"><path d="M186.487,72.007c-67.925,-0.473 -75.049,1.662 -77.026,-3.487c-0.345,-0.899 -2.032,-5.293 -0.024,-12.042c3.133,-10.533 2.636,-26.817 10.202,-30.721c3.861,-1.992 4.046,-1.723 52.861,-1.723c24.491,0 27.902,-1.21 30.069,5.439c1.358,4.166 -1.194,10.513 -2.767,21.072c-2.126,14.271 -5.462,17.551 -6.591,18.661c-2.705,2.659 -2.965,2.252 -6.724,2.801l1.488,-20.44c1.272,-8.464 3.4,-13.714 2.049,-15.757c-0.591,-0.893 -5.076,-0.912 -5.524,-0.914c-4.4,-0.018 -45.98,-0.19 -54.995,0.003c-0.634,0.014 -4.776,0.102 -5.564,5.654c-1.326,9.33 -1.886,9.191 -1.999,9.999c-1.007,7.245 -2.806,10.522 4.558,10.551c4.4,0.017 46.357,0.183 54.995,-0.003c5.719,-0.123 5.71,-6.785 6.48,-9.534l-1.488,20.44Z" style="fill:#fefefe;fill-opacity:0.99;"/><path d="M686.416,60.959c0.748,1.396 0.789,1.372 0.807,1.508c0.014,0.099 -1.541,8.687 -1.798,8.965c-0.562,0.61 -0.736,0.534 -65.926,0.534c-20.76,0 -22.516,0.652 -22.404,-2.477c0.143,-4.001 1.154,-7.389 1.34,-8.012c1.07,-3.587 1.846,-9.509 1.994,-10.002c1.023,-3.397 1.855,-9.558 1.99,-10.003c0.991,-3.269 0.243,-3.37 1.02,-5.993c2.466,-8.322 -0.021,-11.511 6.059,-11.445c77.228,0.851 77.248,-0.735 83.93,-0.07c1.895,0.189 0.633,3.274 0.605,3.471c-0.08,0.569 -0.882,6.296 -1.599,6.999c-1.052,1.032 -72.473,0.183 -75.889,0.48c-1.464,0.127 -1.62,2.307 -2.315,4.497c-1.476,4.653 2.832,2.312 74.281,2.733c5.331,0.031 0.078,11.163 -0.066,11.289c-0.956,0.83 -43.37,0.276 -74.94,0.42c-1.736,0.008 -2.33,0.22 -2.956,5.654c-0.248,2.152 0.796,1.607 2.951,1.599c67.129,-0.248 67.098,0.284 72.916,-0.147Z" style="fill:#fefefe;fill-opacity:1;"/><path d="M395.008,52.492c-2.598,24.065 -11.327,19.474 -35.508,19.474c-55.36,0 -55.491,0.068 -56.014,-0.452c-0.556,-0.553 -0.346,-10.027 2.962,-10.367c3.197,-0.328 72.02,0.481 74.154,-0.451c1.638,-0.716 4.634,-6.697 -0.116,-6.832c-15.132,-0.43 -60.765,0.966 -66.872,-0.858c-7.98,-2.383 -5.655,-9.336 -3.432,-19.569c2.54,-11.695 16.308,-9.404 23.318,-9.404c66.355,0 66.534,-0.07 66.959,0.495c0.023,0.031 -0.787,9.803 -2.867,10.302c-1.582,0.38 -73.027,-0.474 -75.195,0.471c-1.263,0.551 -4.597,6.677 1.112,6.835c15.121,0.419 59.738,-0.962 65.878,0.853c6.046,1.786 5.377,3.198 5.619,9.501Z" style="fill:#fefefe;fill-opacity:1;"/><path d="M958.008,52.492c-2.598,24.065 -11.327,19.474 -35.508,19.474c-55.36,-0 -55.491,0.068 -56.014,-0.452c-0.556,-0.553 -0.346,-10.027 2.962,-10.367c3.197,-0.328 72.02,0.481 74.154,-0.451c1.638,-0.716 4.634,-6.697 -0.116,-6.832c-15.132,-0.43 -60.765,0.966 -66.872,-0.858c-7.98,-2.383 -5.655,-9.336 -3.432,-19.569c2.54,-11.695 16.308,-9.404 23.318,-9.404c66.355,0 66.534,-0.07 66.959,0.495c0.023,0.031 -0.787,9.803 -2.867,10.302c-1.582,0.38 -73.027,-0.474 -75.195,0.471c-1.263,0.551 -4.597,6.677 1.112,6.835c15.121,0.419 59.738,-0.962 65.878,0.853c6.046,1.786 5.377,3.198 5.619,9.501Z" style="fill:#fefefe;fill-opacity:1;"/><path d="M293.487,23.988c0.568,0.09 3.954,-0.715 6.73,4.649c1.67,3.226 -0.353,19.611 -6.678,22.925c-3.026,1.586 -3.961,1.678 -2.971,4.914c1.139,3.722 2.229,11.94 2.368,12.987c0.294,2.216 -0.202,2.508 -2.428,2.505c-5.374,-0.007 -8.442,1.447 -9.419,-3.408c-2.815,-13.993 -4.302,-14.295 -5.522,-14.543c-4.082,-0.829 -4.121,-0.329 -52.069,-0.165c-3.234,0.011 -4.338,-0.549 -4.598,2.674c-0.091,1.122 -1.968,13.594 -3.415,14.959c-0.487,0.459 -9.895,1.637 -10.386,-0.905c-0.467,-2.423 3.704,-18.763 5.085,-28.128c0.593,-4.02 1.111,-3.827 1.773,-7.888c0.985,-6.05 0.27,-10.489 4.531,-10.526c3.156,-0.027 70.826,0.047 76.998,-0.05l-7.909,17.99c1.321,-0.544 1.585,-0.198 2.142,-1.352c3.431,-7.106 -3.841,-5.726 -4.221,-5.729c-0.006,-0 -57.975,-0 -57.995,0c-3.079,0.068 -2.475,2.142 -2.933,3.629c-1.369,4.444 1.286,3.619 5.928,3.623c52.529,0.047 52.527,0.197 57.079,-0.171l7.909,-17.99Z" style="fill:#fefefe;fill-opacity:0.99;"/><path d="M97.487,23.988c0.568,0.09 3.954,-0.715 6.73,4.649c1.648,3.183 0.001,22.383 -9.652,24.198c-9.153,1.721 -9.217,0.865 -65.065,1.017c-4.309,0.012 -6.247,-1.672 -6.598,2.674c-0.091,1.122 -1.968,13.594 -3.415,14.959c-0.487,0.459 -9.895,1.637 -10.386,-0.905c-0.468,-2.424 3.705,-18.762 5.084,-28.128c0.591,-4.013 1.11,-3.819 1.773,-7.888c0.985,-6.05 0.27,-10.489 4.531,-10.526c3.156,-0.027 70.826,0.047 76.998,-0.05l-7.908,17.989c1.323,-0.552 1.584,-0.211 2.136,-1.354c3.428,-7.1 -3.846,-5.723 -4.216,-5.726c-0.007,-0 -57.975,-0 -57.995,0c-3.079,0.068 -2.475,2.142 -2.933,3.629c-1.369,4.444 1.286,3.619 5.928,3.623c52.53,0.047 52.528,0.198 57.08,-0.172l7.908,-17.989Z" style="fill:#fefefe;fill-opacity:0.99;"/><path d="M487.5,53.993c3.07,0.1 6.106,-1.257 4.744,3.417c-0.393,1.347 -0.197,9.707 -7.885,13.803c-2.831,1.509 -27.759,0.391 -71.858,0.821c-14.809,0.144 -9.417,-10.351 -7.3,-24.579c0.18,-1.213 1.444,-9.704 3.219,-14.986c3.454,-10.275 12.428,-8.434 29.08,-8.434c54.238,0 54.674,-0.268 56.716,1.753c5.156,5.101 2.046,15.955 -0.654,16.102c-6.452,0.35 -9.724,0.467 -9.371,-2.418c0.757,-6.186 -3.444,-4.574 -12.691,-4.574c-49.398,0 -49.74,-0.203 -51.283,1.317c-3.196,3.149 -2.547,9.578 -4.975,18.195c-1.906,6.766 1.216,6.693 8.258,6.695c53.614,0.015 53.782,0.04 54.844,-0.804c3.902,-3.1 1.622,-6.153 5.13,-6.23c0.322,-0.007 0.298,-0.006 4.025,-0.076Z" style="fill:#fefefe;fill-opacity:0.99;"/><path d="M592.5,24.034c2.996,-0.072 4.59,-0.495 3.75,2.384c-0.254,0.87 -3.127,17.818 -4.015,20.988c-2.066,7.374 -0.907,7.577 -2.994,15.003c-1.027,3.655 -0.262,9.492 -3.711,9.551c-6.173,0.105 -10.099,1.283 -8.769,-3.368c0.894,-3.127 2.057,-10.14 2.204,-11.027c0.877,-5.289 -2.072,-3.714 -7.466,-3.713c-57.205,0.005 -57.399,-0.11 -58.085,0.574c-1.418,1.414 -0.684,17.462 -5.897,17.537c-6.532,0.094 -9.928,0.748 -8.079,-5.484c0.996,-3.356 2.086,-11.499 3.32,-15.887c0.927,-3.298 3.882,-25.392 5.671,-26.206c0.021,-0.009 9.928,-1.699 10.44,1.044c0.386,2.068 -0.559,1.986 -2.068,12.117c-0.162,1.085 -2.316,4.494 1.702,4.604c14.573,0.397 56.113,0.041 60.992,-0.001c3.993,-0.034 3.213,-7.417 5.669,-16.742c0.27,-1.027 1.076,-1.244 1.212,-1.28c0.473,-0.127 0.452,-0.007 6.124,-0.091Z" style="fill:#fefefe;fill-opacity:0.98;"/><path d="M696.493,71.974c-4.328,0.312 -3.877,-1.041 -3.759,-1.338c0.105,-0.263 41.448,-41.261 45.059,-44.842c3.467,-3.439 13.83,-1.51 14.37,-0.965c0.01,0.01 11.045,17.789 11.059,17.817c1.652,3.138 7.198,11.54 7.339,11.816c2.146,4.192 6.425,10.323 8.661,14.183c2.648,4.57 -2.031,3.392 -9.735,3.316c-4.851,-0.048 -5.523,-6.514 -8.701,-9.741c-1.44,-1.462 -1.755,-1.342 -40.287,-1.324c-2.614,0.001 -2.88,-0.168 -7.831,4.773c-2.34,2.335 -2.258,2.34 -2.459,2.539c-5.343,5.314 -6.22,3.755 -13.718,3.765l55.813,-21.919c-0.047,-0.489 0.652,-1.073 -0.545,-2.705c-1.227,-1.671 -1.239,-1.654 -1.32,-1.813c-3.299,-6.44 -4.126,-6.263 -5.001,-7.997c-2.096,-4.154 -5.17,1.149 -14.796,10.098c-3.845,3.575 3.013,2.116 21.662,2.417l-55.813,21.919Z" style="fill:#fefefe;fill-opacity:0.98;"/><path d="M810.5,71.966c-0.319,-0.008 -3.69,-0.09 -3.956,-0.497c-0.372,-0.57 0.479,-2.737 0.519,-3.019c0.933,-6.552 6.183,-30.97 5.916,-32.052c-0.438,-1.775 -1.242,-1.508 -30.479,-1.5c-5.199,0.001 -8.068,1.668 -7.286,-3.437c1.063,-6.94 2.581,-7.245 3.211,-7.372c0.401,-0.081 85.734,-0.11 86.246,0.022c0.739,0.192 1.636,0.539 -0.835,9.501c-0.427,1.548 -1.136,1.285 -31.337,1.286c-5.702,0 -7.424,-0.964 -8.572,4.654c-0.163,0.799 -1.885,9.226 -1.993,10.001c-0.146,1.045 -1.345,9.618 -2.36,12.975c-0.818,2.706 -1.522,6.47 -1.628,7.038c-0.559,2.991 -1.557,2.48 -7.447,2.402Z" style="fill:#fefefe;fill-opacity:0.99;"/></g></svg>