<?xml version="1.0" encoding="UTF-8" standalone="no"?><!DOCTYPE svg PUBLIC "-//W3C//DTD SVG 1.1//EN" "http://www.w3.org/Graphics/SVG/1.1/DTD/svg11.dtd"><svg width="100%" height="100%" viewBox="0 0 352 350" version="1.1" xmlns="http://www.w3.org/2000/svg" xmlns:xlink="http://www.w3.org/1999/xlink" xml:space="preserve" xmlns:serif="http://www.serif.com/" style="fill-rule:evenodd;clip-rule:evenodd;stroke-linejoin:round;stroke-miterlimit:2;"><g id="Fondo"><path d="M31.535,90.523c0.22,0.07 0.318,-0.506 0.538,-0.436c0.104,0.033 0.713,1.063 2.427,1.065c22.64,0.021 262.252,0.238 283,0c1.583,-0.018 2.017,-0.748 2.211,-0.82c2.595,4.12 16.304,25.889 20.925,57.15c3.791,25.651 2.081,34.367 1.238,45.06c-2.448,31.045 -18.311,61.63 -21.527,65.837c-0.224,-0.016 -0.271,0.475 -0.495,0.458c-0.506,-0.037 -0.914,-0.456 -1.401,-0.597c-0.316,-0.091 -0.318,-0.082 -224.951,-0.082c-55.224,-0 -55.223,-0.62 -59.982,-0.001c-0.459,0.06 -0.76,0.581 -1.213,0.677c-0.319,0.067 -0.634,-0.287 -0.954,-0.219c-0.912,-1.372 -5.134,-7.719 -9.542,-18.25c-22.035,-52.65 -10.018,-97.738 -9.768,-98.956c0.878,-4.27 6.262,-30.468 19.493,-50.888Z" style="fill:#f9bc05;fill-opacity:1;"/><path d="M31.352,258.616c0.319,-0.067 0.634,0.287 0.954,0.219c0.453,-0.096 0.754,-0.617 1.213,-0.677c4.758,-0.619 4.758,0.001 59.982,0.001c224.632,0 224.634,-0.01 224.951,0.082c0.488,0.141 0.895,0.56 1.401,0.597c0.224,0.016 0.271,-0.475 0.495,-0.458c-4.48,7.823 -29.893,52.202 -85.948,72.871c-87.608,32.304 -170.446,-13.344 -203.048,-72.635Z" style="fill:#ab141a;fill-opacity:1;"/><path d="M31.535,90.523c53.967,-91.041 172.501,-107.946 249.295,-45.405c3.699,3.013 25.445,20.722 38.882,45.215c-0.194,0.072 -0.628,0.802 -2.211,0.82c-20.748,0.238 -260.36,0.02 -283,-0c-1.714,-0.002 -2.323,-1.032 -2.427,-1.065c-0.22,-0.07 -0.318,0.506 -0.538,0.436Z" style="fill:#ac151a;fill-opacity:1;"/></g></svg>