<?xml version="1.0" encoding="UTF-8" standalone="no"?><!DOCTYPE svg PUBLIC "-//W3C//DTD SVG 1.1//EN" "http://www.w3.org/Graphics/SVG/1.1/DTD/svg11.dtd"><svg width="100%" height="100%" viewBox="0 0 352 350" version="1.1" xmlns="http://www.w3.org/2000/svg" xmlns:xlink="http://www.w3.org/1999/xlink" xml:space="preserve" xmlns:serif="http://www.serif.com/" style="fill-rule:evenodd;clip-rule:evenodd;stroke-linejoin:round;stroke-miterlimit:2;"><g id="Fondo"><path d="M31.535,90.523c0.453,0.144 0.136,-0.564 0.538,-0.436c0.926,0.295 0.579,0.69 1.424,1.06c0.009,0.004 0.009,0.004 98.003,0.004c185.708,-0 185.738,0.098 188.211,-0.819c34.114,54.168 20.906,113.428 18.738,123.155c-3.524,15.811 -13.997,39.521 -18.102,44.893c-0.224,-0.016 -0.271,0.475 -0.495,0.458c-2.231,-0.163 -2.097,-0.679 -4.352,-0.678c-280.422,0.044 -280.893,-0.231 -284.148,0.456c-0.912,-1.372 -5.134,-7.719 -9.542,-18.25c-22.056,-52.7 -9.996,-97.847 -9.768,-98.956c0.88,-4.27 6.286,-30.505 19.493,-50.888Z" style="fill:#f9bc05;fill-opacity:1;"/><path d="M31.352,258.616c3.256,-0.687 3.726,-0.412 284.148,-0.456c2.255,-0 2.121,0.515 4.352,0.678c0.224,0.016 0.271,-0.475 0.495,-0.458c-0.948,1.655 -6.675,11.657 -13.284,19.797c-82.242,101.297 -225.435,71.874 -275.712,-19.561Z" style="fill:#ab141a;fill-opacity:1;"/><path d="M31.535,90.523c40.711,-68.679 126.058,-104.211 210.867,-68.808c33.611,14.03 63.154,42.816 77.31,68.618c-2.473,0.917 -2.503,0.819 -188.211,0.819c-97.995,0 -97.994,0 -98.003,-0.004c-0.845,-0.371 -0.497,-0.766 -1.424,-1.06c-0.402,-0.128 -0.086,0.58 -0.538,0.436Z" style="fill:#ac151a;fill-opacity:1;"/></g></svg>