<?xml version="1.0" encoding="UTF-8"?>
<svg xmlns="http://www.w3.org/2000/svg" viewBox="0 0 24 24"><path d="M12 5.5c3.5 0 2.92 3.85 2.92 3.85l.528.224c.021.034.052 1.426-.172 1.807l-.118.267C14.5 15 13 15.5 12 15.5 11 15.5 9.5 15 8.842 11.648l-.116-.262C8.5 11 8.535 9.604 8.553 9.574l.529-.224s-.58-3.85 2.92-3.85m0-1c-4.143 0-3.92 3.793-3.92 4.188 0 0-.58.246-.58 1.153v.936c0 .54.377 1.138.377 1.138 0 .002.622 4.585 4.121 4.585 3.501 0 4.123-4.584 4.123-4.585 0 0 .379-.6.378-1.138s0-.617 0-.936c0-.907-.58-1.153-.58-1.153 0-.395.222-4.188-3.92-4.188m3.056 11.676c-.644.89-1.853 1.341-3.057 1.346-1.204-.005-2.413-.456-3.057-1.346C6 17.5 3.5 18 3.5 20h1.003c0-1 2.695-2.022 4.173-2.638.829.732 2.016 1.155 3.324 1.16 1.308-.005 2.495-.428 3.324-1.16C16.78 17.969 19.498 19 19.498 20H20.5c0-1.5-2.5-2.5-5.443-3.824" style="fill: #000000;"/></svg>
